<?xml version="1.0" encoding="utf-8"?>
<svg viewBox="-923.956 -858.259 2165.225 2112.311" xmlns="http://www.w3.org/2000/svg">
  <path opacity="0.2" d="M2230.1,592.2c-45.6-109.6-168.1-175-286.8-174c-118.6,1-231.2,59.6-318.7,139.7 c-64.4,59-117.5,129.6-183.9,186.3c-66.4,56.7-152.1,99.7-238.5,87.4c-116.8-16.7-196.1-124.9-299.7-181.3 C725.7,554.1,482.3,635,378.8,807.8c-103.5,172.8-70.9,408.8,58,563.6c53.5,64.3,121.3,116.4,168.6,185.4 c47.3,69,70.1,165.2,24.2,235.1c-35.9,54.6-103.5,79-149,125.9c-68.6,70.8-75.4,187-32.4,275.7 c78.9,162.3,274.9,217.9,441.4,262.7h737.9c120.6-35.4,233.9-94.8,320.4-185c114.1-119.1,173.6-297.6,124.3-455.1 c-37.3-119-131.2-217.8-148.9-341.3c-23-160.3,86.8-305.3,182.5-436C2201.3,908.2,2292.3,741.7,2230.1,592.2z" style="fill: rgb(1, 147, 159);" transform="matrix(1, 0, 0, 1, -1241.33075, -1202.147583)"/>
  <path opacity="0.2" d="M1404.4,2039.3c80.8,104.2,210.6,169.1,342.5,169.2s262.5-65.2,340.1-171.8 c77.5-106.6,99.2-252.1,54.4-376.1c-29-80.3-84.3-153.6-87.1-238.9c-5.6-167.2,188.6-288,190.6-455.3c1-84.1-53.9-166-132-197.1 c-78.1-31.1-174.3-9.4-231.4,52.3c-105.5,114-60.9,309.4-155,433c-57.4,75.4-154.3,107.8-228.6,166.6 c-76.6,60.7-128.6,151.6-142,248.4c-13.4,96.8,11.8,198.5,68.9,277.7C1416.6,1976.1,1412.6,2010.5,1404.4,2039.3z" style="fill: rgb(1, 147, 159);" transform="matrix(1, 0, 0, 1, -1241.33075, -1202.147583)"/>
  <path opacity="0.2" d="M329.2,1255.2c-17.2,75.6,0.2,158.3,46.4,220.5c52.4,70.6,138.5,114.8,176.5,194 c35.7,74.5,20.6,161.8,21.4,244.5c0.8,82.6,30.1,179,108.7,204.6c54.5,17.7,114-5.9,161.6-37.8 c98.2-65.9,171.2-172.7,184.2-290.3c12.9-117.6-39.6-243.1-139.4-306.6c-52.4-33.3-117.8-51.5-153.7-102.2 c-32.7-46.2-32-108.2-20.9-163.6c11.1-55.5,31.3-109.6,33.3-166.1c2-56.5-19.4-119-69.8-144.6c-93.8-47.6-182,45.6-222.9,119.7 C414,1100.8,347.9,1173,329.2,1255.2z" style="fill: rgb(1, 147, 159);" transform="matrix(1, 0, 0, 1, -1241.33075, -1202.147583)"/>
  <g transform="matrix(1, 0, 0, 1, -1241.33075, -1202.147583)">
    <path d="M935,1552.4c-5.8,4.6-11.8,9.3-15.9,15.4c-4.1,6.2-6.2,14.2-3.6,21.1c-5.9,6.5-9.4,17.3-10.2,26.1 c-0.7,8.8,2.4,18.1,9.1,23.8c9,7.7,22.9,7.6,33.2,1.9c10.3-5.7,17.4-16.1,21.7-27.1c7.3-18.9,7.2-39.7,6.8-60 C961.6,1548.6,947,1542.9,935,1552.4z" style="fill: rgb(252, 185, 134);"/>
    <path fill="#00292C" d="M1071.1,2358.7c2.5,14.1-6.5,28.2-18.4,36s-26.3,10.7-40.4,13.4c-14,2.6-28.4,5.3-40.6,12.8 c-12.1,7.5-21.6,21.1-19.9,35.3H1153c0.5-31.9,0.4-65.4,0.9-97.2C1130.5,2349.5,1096.2,2356.2,1071.1,2358.7z"/>
    <path d="M1442.2,2358.7c-2.5,14.1,6.5,28.2,18.4,36s26.3,10.7,40.4,13.4s28.4,5.3,40.6,12.8 s21.6,21.1,19.9,35.3h-201.2c-0.5-31.9-0.4-65.4-0.9-97.2C1382.7,2349.5,1417.1,2356.2,1442.2,2358.7z" fill="#00292C"/>
    <path fill="#B0A9C4" d="M1120.2,2088.3c106.8-22.5,213.9-43.2,321.3-62.1c-6-195.6-31.2-386.8-91.6-572.9 c-6.2-19.2-15.3-40.8-34.6-46.5c-17.7-5.2-36,5.6-50.1,17.5c-81.4,68.8-108.6,180.8-131.3,285 C1109,1823.6,1074.8,1980.4,1120.2,2088.3z"/>
    <path fill="#004162" d="M1095.9,1318.1c-23.4,352.3-36.5,705.3-39.2,1058.4h113.2c29.2-164,31-326.9,20.1-493.2 c-13.7-207.6,130-399.6,132.8-607.6C1254.8,1283.9,1162.9,1304.4,1095.9,1318.1z"/>
    <path fill="#004162" d="M1253,1306c33.9,354,67.9,708,101.8,1062h89.4c41.6-166.9,49.9-342.5,26.8-512.9 c-26.5-195,29.4-408.2-16.2-599.6C1382.4,1254.2,1313.6,1266.6,1253,1306z"/>
    <path fill="#EEE8FF" d="M1238.7,676.2c-79.3,17.5-137,90.7-158.9,168.9c-21.9,78.2-14.5,161.3-5.1,242 c9.4,80.7,20.6,162.7,5.7,242.6c122.4,60.2,272.6,57.8,393.7-5.2c-1.3-141.1-10.3-283.1-11.6-424.2 c-0.5-57.5-2.8-119.9-39.6-164.1C1383.2,688.5,1299.2,662.9,1238.7,676.2z"/>
    <path fill="#EEE8FF" d="M1339.1,1307.5c27.6,152.4,38.8,252,43.4,406.8s-14.6,312.6-77.3,454.2 c103.4,32.9,217.1,31.2,318.7-6.8c-36.9-307.4-91.2-611-158.8-913.2C1423.6,1275.6,1381.8,1332.6,1339.1,1307.5z"/>
    <path d="M1348.6,1366.6c-50.5-221.5-72-435.2-14-655.2c-29.4,0.8-62.2-17.6-90.6-25.2 c-67.5,219.2-84.5,453.7-49.7,680.4C1245.1,1375.5,1297.6,1375.5,1348.6,1366.6z" style="fill: rgb(1, 147, 159);"/>
    <path fill="#EEE8FF" d="M1213.2,688.9c-67.7,5.1-128.5,48.7-166.1,105.2c-37.6,56.5-54.3,124.6-60.8,192.1 c-6.4,67.6-3.2,135.6-4.5,203.5c-2.3,121.4-19.1,242.5-49.8,360c14.7,6.6,32.3,11.3,48.4,10.4 c64.1-149.9,113.5-306,137.5-467.3c10.3-69.2,25.8-134.7,49-200.6S1225.6,757.7,1213.2,688.9z"/>
    <g opacity="0.2">
      <path d="M1473.4,1280.1c-0.6-33.3-1.6-66.7-2.8-100.1c-17.2,6.7-36.6,8.9-54.8,6.4c-39.8-5.4-75.7-24.2-109.3-46.3 c-0.4,0.4-0.8,0.8-1.2,1.1c-2.1-5.9-4.5-11.7-8.1-16.8c-5.1-7.1-13-12.7-21.7-12.7c-4.7-9.2-15.1-17.5-24.5-21.9 c-9.4-4.5-20.9-4.8-30,0.2c-12.1,6.7-17.8,22.1-15.8,35.8c2,13.7,10.5,25.8,20.9,35c14.4,12.8,32.3,20.9,50.5,27.6 c-1.4,4.1-2.5,8.2-3.5,12.4C1329.2,1247.5,1400.6,1275.3,1473.4,1280.1z"/>
      <path d="M1398.5,834.9c-5.2,37.2-1.5,76.4,16.3,109.5c12.6,23.4,31.4,42.5,49.8,61.9c-1.1-35.4-1.9-70.7-2.2-106 c-0.4-48.5-2.1-100.7-24.8-142.3C1421.7,782.8,1402.4,807.1,1398.5,834.9z"/>
    </g>
    <path d="M1304,1133.8c-4.1-7.7-8.3-15.5-14.6-21.6c-6.3-6-15.1-10.1-23.7-8.6c-6.3-8.2-18.1-14.5-28.1-17.1 c-10-2.7-21.4-1-29.4,5.6c-10.7,8.8-13.5,24.9-9,38.1c4.5,13.1,15,23.4,26.9,30.6c20.3,12.3,44.5,16.5,68,20.2 C1302.9,1165.4,1312.5,1149.6,1304,1133.8z" style="fill: rgb(252, 185, 134);"/>
    <path fill="#EEE8FF" d="M1370.1,698.5c71.4,23.5,132.7,72.9,177.8,133c45.1,60.2,74.9,130.7,95,203.2 c10.9,39.3,18.7,82.9,0.5,119.4c-17.6,35.3-55.7,55.5-93.4,66.9c-89.1,27-189.1,16.2-270.4-29.2c1.3-23.6,7.6-46.9,21.9-65.8 c37.1,15.6,75.7,27.5,115.9,25.7c40.2-1.9,82.3-27.1,89.9-66.6c7.2-37.5-18-73.8-47.1-98.4c-29.2-24.6-64-43.2-87.8-73 c-23.5-29.3-34.2-67.2-35.9-104.7C1334.7,771.5,1361.4,735,1370.1,698.5z"/>
    <path fill="#EEE8FF" d="M1182.5,1283c25.3,148.2,50.6,296.9,56.2,447.2s-9.2,303-62,443.8c-74,24.9-160.6,20.8-229.7-15.8 c108.6-296.3,130.1-638.2,137-953.6C1115.1,1232.4,1151.5,1255.2,1182.5,1283z"/>
    <path fill="#625E6E" d="M1358.9,978.6c21.6-60.5,31.3-125.5,28.2-189.6c-1.1-23.2-4.1-53.2-17.1-80.6 c-13.4-28.1-35.8-48.3-61.3-55.4c-18.5-5.1-49-6.2-88.9,17.8c-32,19.3-58.7,47.7-77.1,82.1c-17.5,32.6-26.4,68.4-25.9,103.9 c-14,2.6-27.3,12.2-35.6,26.1c-7.6,12.9-11.4,28.7-11.8,49.8c-0.1,7.1,0.1,14.3,0.3,21.3c0.2,6.2,0.4,12.4,0.4,18.7 c-3.4,1.7-5.7,5.2-5.7,9.2c0,5.7,4.6,10.4,10.4,10.4c5.7,0,10.4-4.6,10.4-10.4c0-3.8-2.1-7.1-5.1-8.9c0.1-6.5-0.1-13-0.4-19.3 c-0.2-6.8-0.5-13.9-0.3-20.8c0.3-19.2,3.6-33.5,10.4-44.9c8.2-13.8,22.1-22.4,35.5-21.9c13.8,0.5,27.5,10.6,35,25.9 c7.1,14.4,8.5,31.5,9,47.7c0.1,2.6,0.1,5.1,0.2,7.7c0.3,10.7,0.5,21.6,2.1,32.4c-3.3,2.3-5.5,6.1-5.5,10.5 c0,7,5.7,12.7,12.7,12.7s12.7-5.7,12.7-12.7c0-6.1-4.3-11.2-10.1-12.4c-1.5-10.1-1.7-20.5-2-30.7c-0.1-2.6-0.1-5.2-0.2-7.8 c-0.5-17.4-2.1-35.7-10.1-51.8c-8.9-18.1-25.5-30.3-42.5-31.4c-0.4-33.6,8.1-67.5,24.7-98.5c17.6-32.8,43-59.9,73.5-78.2 c16.7-10,49.3-25.6,81.1-16.8c22.7,6.3,42.8,24.6,54.9,50.1c12.3,25.7,15.1,54.5,16.2,76.7c3.1,62.7-6.4,126.3-27.5,185.5 c-1.8-0.4-3.7-0.5-5.6-0.5c-15.8,0-28.6,12.8-28.6,28.6c0,15.8,12.8,28.6,28.6,28.6c15.8,0,28.6-12.8,28.6-28.6 C1372.6,992.7,1367.1,983.7,1358.9,978.6z"/>
    <g>
      <path d="M1245,514.5c-38.3,6.2-77.9,10.4-115.7,1.3c-37.7-9.1-73.7-33.8-87-70.2s2.9-83.9,39.4-97.1 c51.7-18.8,108,33.8,160.8,18.5c15.8-4.6,29.4-14.9,45-19.9c21.3-6.8,45.7-2.6,63.6,10.7c17.9,13.4,28.7,35.7,28.2,58 c24.6,37.3,37.8,84.1,21.9,125.8s-52.9,74.9-96.1,86.3c7.1-23.8,17.5-52.1,6.6-74.4C1300.7,530.7,1268.1,525,1245,514.5z" style="fill: rgb(0, 41, 44);"/>
      <path d="M1233.3,602.6c3.3,34.8,6.6,69.5,9.9,104.3c30.6,10.7,59.8,11.7,91.4,4.5c-3-47-5-98.5-8-145.4 C1294.4,572.7,1257.9,580.8,1233.3,602.6z" style="fill: rgb(252, 185, 134);"/>
      <path opacity="0.2" d="M1330,627.1c-1.1-20.7-2.2-41.3-3.4-61.1c-32.2,6.7-68.7,14.8-93.3,36.6c3.1,33.3,6.3,66.6,9.4,99.9 C1275.4,681.9,1304.9,656.4,1330,627.1z"/>
      <path d="M1171,481c-11.9,64.8-1.3,133.5,29.5,191.8c32.6-12.4,72.3-27.6,100.2-48.4c28-20.8,51-50.4,56.9-84.8 c8.3-48.6-22.9-101-69.7-116.7C1241.2,407.2,1179.9,432.5,1171,481z" style="fill: rgb(252, 185, 134);"/>
      <path d="M1146.6,494.3c37.7,17.9,81.5,22.6,122.1,13.2c7.5,18.7,20.2,31.7,35.5,44.7c1,6.6-1.9,13.1-0.9,19.7 c4.3-0.5,9.5,0.5,13.8,0.1c-2.7-7.5-3.9-16.5-4.3-24.4c-0.4-7.9,2-16.4,8-21.6c6-5.2,16.1-5.9,21.6-0.2 c6.2,6.3,4.6,16.6,1.8,24.9c-6.9,20.8-19.1,39.8-35,54.8c9.5,3.2,15.2,7.8,24.7,11c16.8-23.1,32.9-49.9,41.7-77 c8.8-27.2,9.1-58.5-5.7-82.9c-10.9-18.1-28.9-30.8-47.6-40.7c-27.2-14.4-57.9-24.1-88.5-20.5 C1181,401.5,1145.3,441.1,1146.6,494.3z" style="fill: rgb(0, 41, 44);"/>
    </g>
    <path opacity="0.1" fill="#6D697A" d="M1235.9,713.2c-23.4,25.3-46.7,50.6-70.1,76c8.1,17.7,6,41,14.1,58.7 c-19,18.5-38.4,39-57.3,57.5c12.4,144,32.3,295,65.1,435.7c0.9-0.1,1.8-0.1,2.8-0.1C1162,1131.6,1177.5,916.3,1235.9,713.2z"/>
    <path opacity="0.1" fill="#6D697A" d="M1328.5,711.3c-2.4-4.3-4.8-8.6-7.2-12.9c-13.6-1.3-27.4-1.1-41.1,0.3 C1296.3,704.8,1312.8,710.4,1328.5,711.3z"/>
    <g>
      <path opacity="0.1" fill="#6D697A" d="M1358.8,1145.4c6.6-59.5,15-118.9,25.7-178.8c-15.8-7-30.8-20.9-43.4-32.8 c24.1-18.1,44.2-36.1,68.2-54.2c-20.8-55.6-47.9-108.9-76.7-160.9c-35.3,137.8-39.5,273.2-25.2,409.7 C1324.3,1135.3,1341.4,1141.2,1358.8,1145.4z"/>
      <path opacity="0.1" fill="#6D697A" d="M1318.2,1210.2c6.4,41.5,14.3,83.1,23.4,124.9c0.5,0,1-0.1,1.6-0.1 c2.2-38.1,4.9-75.9,8.2-113.4C1340.1,1218.3,1329,1214.5,1318.2,1210.2z"/>
    </g>
  </g>
  <circle cx="2196.1" cy="894.5" r="286.5" style="fill: rgb(1, 147, 159);" transform="matrix(1, 0, 0, 1, -1241.33075, -1202.147583)"/>
  <circle fill="#FF743A" cx="559.7" cy="650" r="242.3" transform="matrix(1, 0, 0, 1, -1241.33075, -1202.147583)"/>
  <circle fill="#FFC03F" cx="608.5" cy="1811.6" r="242.3" transform="matrix(1, 0, 0, 1, -1241.33075, -1202.147583)"/>
  <g transform="matrix(1, 0, 0, 1, -1241.33075, -1202.147583)">
    <rect x="2148.7" y="756.6" fill="#FFFFFF" width="94.8" height="271.6"/>
    <rect x="2148.7" y="756.6" transform="matrix(-1.836970e-16 1 -1 -1.836970e-16 3088.4934 -1303.7668)" fill="#FFFFFF" width="94.8" height="271.6"/>
  </g>
  <polygon fill="#FFFFFF" points="678.7,685.7 678.7,490.3 440.7,490.3 440.7,791.7 572.7,791.7 &#9;&#9;&#9;&#9;" transform="matrix(1, 0, 0, 1, -1241.33075, -1202.147583)"/>
  <polygon fill="#EBEBEB" points="572.7,685.7 572.7,791.7 678.7,685.7 &#9;&#9;&#9;&#9;" transform="matrix(1, 0, 0, 1, -1241.33075, -1202.147583)"/>
  <path fill="#EBEBEB" d="M637.6,555.8H484.4c-6.7,0-12.2-5.5-12.2-12.2l0,0c0-6.7,5.5-12.2,12.2-12.2h153.2 c6.7,0,12.2,5.5,12.2,12.2l0,0C649.8,550.3,644.4,555.8,637.6,555.8z" transform="matrix(1, 0, 0, 1, -1241.33075, -1202.147583)"/>
  <path fill="#EBEBEB" d="M637.6,601.9H484.4c-6.7,0-12.2-5.5-12.2-12.2v0c0-6.7,5.5-12.2,12.2-12.2h153.2 c6.7,0,12.2,5.5,12.2,12.2v0C649.8,596.4,644.4,601.9,637.6,601.9z" transform="matrix(1, 0, 0, 1, -1241.33075, -1202.147583)"/>
  <path fill="#EBEBEB" d="M637.6,648H484.4c-6.7,0-12.2-5.5-12.2-12.2l0,0c0-6.7,5.5-12.2,12.2-12.2h153.2 c6.7,0,12.2,5.5,12.2,12.2l0,0C649.8,642.5,644.4,648,637.6,648z" transform="matrix(1, 0, 0, 1, -1241.33075, -1202.147583)"/>
  <path fill="#FFFFFF" d="M506.3,1913.8L506.3,1913.8c-26.5-26.5-26.5-69.4,0-95.8l108.7-108.7c26.5-26.5,69.4-26.5,95.8,0l0,0 c26.5,26.5,26.5,69.4,0,95.8l-108.7,108.7C575.6,1940.3,532.7,1940.3,506.3,1913.8z" transform="matrix(1, 0, 0, 1, -1241.33075, -1202.147583)"/>
  <path d="M710.8,1709.3L710.8,1709.3c-26.5-26.5-69.4-26.5-95.8,0l-54.3,54.3l95.8,95.8l54.3-54.3 C737.2,1778.7,737.2,1735.8,710.8,1709.3z" style="fill: rgb(1, 80, 87);" transform="matrix(1, 0, 0, 1, -1241.33075, -1202.147583)"/>
</svg>